<svg width="84" height="129" viewBox="0 0 84 129" fill="none" xmlns="http://www.w3.org/2000/svg">
<path d="M42.861 83.536C36.0343 83.536 30.2317 82.256 25.453 79.696C20.7597 77.136 17.1757 73.5947 14.701 69.072C12.2263 64.5493 10.989 59.344 10.989 53.456C10.989 47.824 12.4397 42.7467 15.341 38.224C18.2423 33.7013 22.125 30.1173 26.989 27.472C31.853 24.7413 37.2717 23.376 43.245 23.376C51.2663 23.376 57.837 25.7227 62.957 30.416C68.1623 35.024 71.533 41.7227 73.069 50.512L29.549 64.336L25.581 54.608L57.069 43.984L53.357 45.648C52.6743 43.4293 51.437 41.5093 49.645 39.888C47.9383 38.1813 45.3357 37.328 41.837 37.328C39.1917 37.328 36.845 37.968 34.797 39.248C32.8343 40.4427 31.2983 42.192 30.189 44.496C29.165 46.7147 28.653 49.36 28.653 52.432C28.653 55.9307 29.293 58.8747 30.573 61.264C31.853 63.568 33.6023 65.3173 35.821 66.512C38.0397 67.7067 40.5143 68.304 43.245 68.304C45.2077 68.304 47.085 67.9627 48.877 67.28C50.7543 66.5973 52.589 65.7013 54.381 64.592L62.317 77.904C59.3303 79.6107 56.0877 80.976 52.589 82C49.1757 83.024 45.933 83.536 42.861 83.536Z" fill="#FA923C"/>
<path fill-rule="evenodd" clip-rule="evenodd" d="M38.076 127.798C39.0676 128.591 40.2575 128.988 41.6457 128.988C42.9347 128.988 44.075 128.641 45.0666 127.946C46.1573 127.153 46.9505 126.063 47.4463 124.674C49.2311 119.419 51.4622 114.461 54.1394 109.801C56.9157 105.041 60.9812 99.092 66.3356 91.9527C70.7976 86.1025 74.7143 80.2027 78.0856 74.2533C81.5561 68.2048 83.2913 60.6689 83.2913 51.6457C83.2913 40.0444 79.2259 30.2279 71.0951 22.1962C63.0634 14.0654 53.247 10 41.6457 10C30.0444 10 20.1783 14.0654 12.0475 22.1962C4.01583 30.2279 0 40.0444 0 51.6457C0 60.074 1.53692 67.2628 4.61077 73.2122C7.78377 79.1616 11.8988 85.4084 16.9557 91.9527C22.0127 98.497 25.9294 104.199 28.7058 109.057C31.5813 113.916 33.9611 119.122 35.845 124.674C36.3408 125.963 37.0845 127.005 38.076 127.798ZM42.1004 89.9567C62.1916 89.9567 78.4788 73.6695 78.4788 53.5783C78.4788 33.487 62.1916 17.1999 42.1004 17.1999C22.0092 17.1999 5.72201 33.487 5.72201 53.5783C5.72201 73.6695 22.0092 89.9567 42.1004 89.9567Z" fill="#FA923C"/>
</svg>
